<svg width="24" height="22" viewBox="0 0 24 22" fill="none" xmlns="http://www.w3.org/2000/svg">
<path d="M1.38202 12.2135C0.998228 9.9162 0.80633 8.76763 1.2785 7.74938C1.75066 6.73112 2.79823 6.03443 4.89334 4.64106L6.45872 3.6C9.06501 1.86667 10.3681 1 11.8718 1C13.3754 1 14.6786 1.86667 17.2849 3.6L18.8502 4.64106C20.9454 6.03443 21.9929 6.73112 22.4651 7.74938C22.9372 8.76763 22.7454 9.9162 22.3616 12.2135L22.0343 14.1724C21.4902 17.4289 21.2182 19.0572 19.9485 20.0286C18.6788 21 16.8224 21 13.1099 21H10.6337C6.92115 21 5.06487 21 3.79514 20.0286C2.52541 19.0572 2.25338 17.4289 1.70931 14.1724L1.38202 12.2135Z" stroke="#767676" stroke-width="1.5" stroke-linejoin="round"/>
<path d="M11.8721 17V14" stroke="#767676" stroke-width="1.5" stroke-linecap="round"/>
</svg>
