<svg width="24" height="22" viewBox="0 0 24 22" fill="none" xmlns="http://www.w3.org/2000/svg">
<path d="M5.32163 14.4816C3.61262 15.324 -0.868305 17.0441 1.86088 19.1966C3.19407 20.248 4.67889 21 6.54568 21H17.1979C19.0647 21 20.5496 20.248 21.8827 19.1966C24.6119 17.0441 20.131 15.324 18.422 14.4816C14.4144 12.5061 9.32925 12.5061 5.32163 14.4816Z" stroke="#767676" stroke-width="1.5" stroke-linecap="round" stroke-linejoin="round"/>
<path d="M17.3073 5.5C17.3073 7.98528 14.8736 10 11.8714 10C8.86928 10 6.43555 7.98528 6.43555 5.5C6.43555 3.01472 8.86928 1 11.8714 1C14.8736 1 17.3073 3.01472 17.3073 5.5Z" stroke="#767676" stroke-width="1.5"/>
</svg>
