<svg width="20" height="18" viewBox="0 0 20 18" fill="none" xmlns="http://www.w3.org/2000/svg">
<path d="M17.8125 0H1.31252C0.964422 0 0.630583 0.138281 0.384442 0.384422C0.1383 0.630564 1.91161e-05 0.964403 1.91161e-05 1.3125V16.3125C-0.00133701 16.5627 0.0694874 16.8081 0.204006 17.0191C0.338524 17.2301 0.53103 17.3978 0.758457 17.5022C0.932084 17.5827 1.12112 17.6246 1.31252 17.625C1.62172 17.6252 1.92086 17.5152 2.15627 17.3147L2.16189 17.31L5.27158 14.625H17.8125C18.1606 14.625 18.4945 14.4867 18.7406 14.2406C18.9867 13.9944 19.125 13.6606 19.125 13.3125V1.3125C19.125 0.964403 18.9867 0.630564 18.7406 0.384422C18.4945 0.138281 18.1606 0 17.8125 0ZM18 13.3125C18 13.3622 17.9803 13.4099 17.9451 13.4451C17.9099 13.4802 17.8622 13.5 17.8125 13.5H5.06252C4.92757 13.5001 4.79713 13.5486 4.69502 13.6369L1.43064 16.4559C1.40328 16.4781 1.3702 16.4922 1.33522 16.4965C1.30023 16.5007 1.26475 16.495 1.23285 16.4801C1.20094 16.4651 1.1739 16.4414 1.15483 16.4118C1.13576 16.3822 1.12543 16.3477 1.12502 16.3125V1.3125C1.12502 1.26277 1.14477 1.21508 1.17994 1.17992C1.2151 1.14475 1.26279 1.125 1.31252 1.125H17.8125C17.8622 1.125 17.9099 1.14475 17.9451 1.17992C17.9803 1.21508 18 1.26277 18 1.3125V13.3125Z" fill="#767676"/>
</svg>
