<svg width="24" height="24" viewBox="0 0 24 24" fill="none" xmlns="http://www.w3.org/2000/svg">
<path d="M20.7746 5.47261C19.7906 4.4906 18.4576 3.93845 17.0674 3.93705C15.6772 3.93564 14.3431 4.48509 13.3571 5.46511L11.9996 6.72886L10.6421 5.46511C9.65683 4.48112 8.32105 3.92881 6.92859 3.92969C5.53614 3.93057 4.20106 4.48456 3.21707 5.4698C2.23307 6.45504 1.68076 7.79081 1.68164 9.18327C1.68252 10.5757 2.23652 11.9108 3.22175 12.8948L11.5993 21.3942C11.6516 21.4472 11.7139 21.4893 11.7826 21.518C11.8513 21.5467 11.9251 21.5615 11.9996 21.5615C12.074 21.5615 12.1478 21.5467 12.2165 21.518C12.2852 21.4893 12.3476 21.4472 12.3999 21.3942L20.7746 12.8986C21.2623 12.411 21.6491 11.8322 21.9131 11.1951C22.1771 10.558 22.3129 9.87518 22.3129 9.18558C22.3129 8.49599 22.1771 7.81314 21.9131 7.17606C21.6491 6.53898 21.2623 5.96014 20.7746 5.47261ZM19.9758 12.1054L11.9996 20.1979L4.0205 12.1026C3.25142 11.3281 2.82063 10.2804 2.82249 9.18896C2.82435 8.0975 3.25871 7.05126 4.03043 6.27941C4.80215 5.50757 5.84832 5.07304 6.93979 5.071C8.03125 5.06897 9.07903 5.49959 9.85363 6.26855C9.85818 6.27341 9.8632 6.27781 9.86863 6.28168L11.6161 7.90918C11.7202 8.00618 11.8573 8.06012 11.9996 8.06012C12.1419 8.06012 12.2789 8.00618 12.383 7.90918L14.1305 6.28074C14.1359 6.27687 14.141 6.27248 14.1455 6.26761C14.5283 5.88257 14.9833 5.57688 15.4844 5.36806C15.9856 5.15925 16.5231 5.05143 17.066 5.05077C17.6089 5.05012 18.1466 5.15665 18.6483 5.36426C19.15 5.57187 19.6057 5.87647 19.9894 6.2606C20.3731 6.64472 20.6772 7.10081 20.8842 7.60271C21.0913 8.1046 21.1972 8.64244 21.1959 9.18536C21.1947 9.72829 21.0862 10.2656 20.8769 10.7666C20.6675 11.2675 20.3613 11.7222 19.9758 12.1045V12.1054Z" fill="black"/>
</svg>
