<svg width="28" height="16" viewBox="0 0 28 16" fill="none" xmlns="http://www.w3.org/2000/svg">
<path d="M5.83029 15.8557C4.96754 15.8557 4.23418 15.5538 3.63021 14.9501C3.02624 14.3461 2.72425 13.6128 2.72425 12.75H0V1.41667C0 1.02708 0.138715 0.693576 0.416146 0.416146C0.693576 0.138715 1.02708 0 1.41667 0H19.9424L27.625 7.24696V12.75H25.3364C25.3364 13.6128 25.0345 14.3461 24.4308 14.9501C23.8268 15.5538 23.0934 15.8557 22.2307 15.8557C21.3679 15.8557 20.6347 15.5538 20.031 14.9501C19.427 14.3461 19.125 13.6128 19.125 12.75H8.93598C8.93598 13.6035 8.63399 14.3345 8.03002 14.943C7.42605 15.5515 6.69281 15.8557 5.83029 15.8557ZM17 6.48408H24.7371L19.3428 1.41667H17V6.48408ZM9.20833 6.48408H15.5833V1.41667H9.20833V6.48408ZM1.41667 6.48408H7.79167V1.41667H1.41667V6.48408ZM5.83029 14.5208C6.32612 14.5208 6.74522 14.3497 7.08758 14.0073C7.42994 13.6649 7.60112 13.2458 7.60112 12.75C7.60112 12.2542 7.42994 11.8351 7.08758 11.4927C6.74522 11.1503 6.32612 10.9792 5.83029 10.9792C5.33446 10.9792 4.91536 11.1503 4.573 11.4927C4.23064 11.8351 4.05946 12.2542 4.05946 12.75C4.05946 13.2458 4.23064 13.6649 4.573 14.0073C4.91536 14.3497 5.33446 14.5208 5.83029 14.5208ZM22.2307 14.5208C22.7265 14.5208 23.1456 14.3497 23.488 14.0073C23.8303 13.6649 24.0015 13.2458 24.0015 12.75C24.0015 12.2542 23.8303 11.8351 23.488 11.4927C23.1456 11.1503 22.7265 10.9792 22.2307 10.9792C21.7349 10.9792 21.3158 11.1503 20.9734 11.4927C20.631 11.8351 20.4599 12.2542 20.4599 12.75C20.4599 13.2458 20.631 13.6649 20.9734 14.0073C21.3158 14.3497 21.7349 14.5208 22.2307 14.5208ZM1.41667 11.3333H3.09471C3.29635 10.9083 3.64331 10.5205 4.1356 10.1699C4.6279 9.81951 5.19279 9.64431 5.83029 9.64431C6.46779 9.64431 7.01899 9.80593 7.4839 10.1292C7.9488 10.4524 8.30934 10.8538 8.56552 11.3333H19.4955C19.6971 10.9083 20.0441 10.5205 20.5364 10.1699C21.0284 9.81951 21.5932 9.64431 22.2307 9.64431C22.8682 9.64431 23.4194 9.80593 23.8843 10.1292C24.3494 10.4524 24.71 10.8538 24.9659 11.3333H26.2083V7.90075H1.41667V11.3333Z" fill="#767676"/>
</svg>
