<svg width="34" height="34" viewBox="0 0 34 34" fill="none" xmlns="http://www.w3.org/2000/svg">
<mask id="mask0_3041_996" style="mask-type:alpha" maskUnits="userSpaceOnUse" x="0" y="0" width="34" height="34">
<rect width="34" height="34" fill="#D9D9D9"/>
</mask>
<g mask="url(#mask0_3041_996)">
<path d="M8.83029 20.8557C7.96754 20.8557 7.23418 20.5538 6.63021 19.9501C6.02624 19.3461 5.72425 18.6128 5.72425 17.75H3V6.41667C3 6.02708 3.13872 5.69358 3.41615 5.41615C3.69358 5.13872 4.02708 5 4.41667 5H22.9424L30.625 12.247V17.75H28.3364C28.3364 18.6128 28.0345 19.3461 27.4308 19.9501C26.8268 20.5538 26.0934 20.8557 25.2307 20.8557C24.3679 20.8557 23.6347 20.5538 23.031 19.9501C22.427 19.3461 22.125 18.6128 22.125 17.75H11.936C11.936 18.6035 11.634 19.3345 11.03 19.943C10.426 20.5515 9.69281 20.8557 8.83029 20.8557ZM20 11.4841H27.7371L22.3428 6.41667H20V11.4841ZM12.2083 11.4841H18.5833V6.41667H12.2083V11.4841ZM4.41667 11.4841H10.7917V6.41667H4.41667V11.4841ZM8.83029 19.5208C9.32612 19.5208 9.74522 19.3497 10.0876 19.0073C10.4299 18.6649 10.6011 18.2458 10.6011 17.75C10.6011 17.2542 10.4299 16.8351 10.0876 16.4927C9.74522 16.1503 9.32612 15.9792 8.83029 15.9792C8.33446 15.9792 7.91536 16.1503 7.573 16.4927C7.23064 16.8351 7.05946 17.2542 7.05946 17.75C7.05946 18.2458 7.23064 18.6649 7.573 19.0073C7.91536 19.3497 8.33446 19.5208 8.83029 19.5208ZM25.2307 19.5208C25.7265 19.5208 26.1456 19.3497 26.488 19.0073C26.8303 18.6649 27.0015 18.2458 27.0015 17.75C27.0015 17.2542 26.8303 16.8351 26.488 16.4927C26.1456 16.1503 25.7265 15.9792 25.2307 15.9792C24.7349 15.9792 24.3158 16.1503 23.9734 16.4927C23.631 16.8351 23.4599 17.2542 23.4599 17.75C23.4599 18.2458 23.631 18.6649 23.9734 19.0073C24.3158 19.3497 24.7349 19.5208 25.2307 19.5208ZM4.41667 16.3333H6.09471C6.29635 15.9083 6.64331 15.5205 7.1356 15.1699C7.6279 14.8195 8.19279 14.6443 8.83029 14.6443C9.46779 14.6443 10.019 14.8059 10.4839 15.1292C10.9488 15.4524 11.3093 15.8538 11.5655 16.3333H22.4955C22.6971 15.9083 23.0441 15.5205 23.5364 15.1699C24.0284 14.8195 24.5932 14.6443 25.2307 14.6443C25.8682 14.6443 26.4194 14.8059 26.8843 15.1292C27.3494 15.4524 27.71 15.8538 27.9659 16.3333H29.2083V12.9007H4.41667V16.3333Z" fill="#767676"/>
</g>
</svg>
