<svg width="28" height="28" viewBox="0 0 28 28" fill="none" xmlns="http://www.w3.org/2000/svg">
<circle cx="14" cy="14" r="13.5" fill="white" stroke="#D7D7D7"/>
<path d="M16.2726 11.2663L15.6327 10.2553C15.4978 10.0981 15.313 10 15.1058 10H12.8942C12.687 10 12.5022 10.0981 12.3673 10.2553L11.7274 11.2663C11.5925 11.4238 11.4188 11.5385 11.2115 11.5385H9.76923C9.56522 11.5385 9.36956 11.6195 9.2253 11.7638C9.08104 11.908 9 12.1037 9 12.3077V16.9231C9 17.1271 9.08104 17.3227 9.2253 17.467C9.36956 17.6113 9.56522 17.6923 9.76923 17.6923H18.2308C18.4348 17.6923 18.6304 17.6113 18.7747 17.467C18.919 17.3227 19 17.1271 19 16.9231V12.3077C19 12.1037 18.919 11.908 18.7747 11.7638C18.6304 11.6195 18.4348 11.5385 18.2308 11.5385H16.8125C16.6046 11.5385 16.4075 11.4238 16.2726 11.2663Z" stroke="#767676" stroke-linecap="round" stroke-linejoin="round"/>
<path d="M14.0012 16.1587C15.0633 16.1587 15.9243 15.2977 15.9243 14.2356C15.9243 13.1735 15.0633 12.3125 14.0012 12.3125C12.9391 12.3125 12.0781 13.1735 12.0781 14.2356C12.0781 15.2977 12.9391 16.1587 14.0012 16.1587Z" stroke="#767676" stroke-miterlimit="10"/>
<path d="M10.8269 11.4898V10.9609H10.25V11.4898" stroke="#767676" stroke-linecap="round" stroke-linejoin="round"/>
</svg>
