<svg width="24" height="24" viewBox="0 0 24 24" fill="none" xmlns="http://www.w3.org/2000/svg">
<path d="M21.3973 20.5993L16.5804 15.7825C17.954 14.2028 18.6606 12.1515 18.5513 10.0611C18.442 7.97057 17.5253 6.00419 15.9944 4.57641C14.4635 3.14864 12.4381 2.37102 10.3451 2.40748C8.25208 2.44393 6.25497 3.29161 4.77475 4.77182C3.29454 6.25204 2.44686 8.24915 2.41041 10.3422C2.37395 12.4352 3.15157 14.4606 4.57934 15.9915C6.00712 17.5223 7.9735 18.439 10.064 18.5484C12.1545 18.6577 14.2057 17.9511 15.7854 16.5775L20.6023 21.3943C20.7089 21.4937 20.8499 21.5478 20.9957 21.5452C21.1414 21.5426 21.2804 21.4836 21.3835 21.3805C21.4865 21.2775 21.5456 21.1384 21.5481 20.9927C21.5507 20.847 21.4966 20.706 21.3973 20.5993ZM3.56226 10.4968C3.56226 9.12472 3.96914 7.78343 4.73144 6.64256C5.49374 5.5017 6.57723 4.6125 7.84489 4.08742C9.11256 3.56233 10.5075 3.42495 11.8532 3.69263C13.1989 3.96032 14.4351 4.62105 15.4053 5.59128C16.3755 6.5615 17.0363 7.79765 17.304 9.14339C17.5716 10.4891 17.4343 11.884 16.9092 13.1517C16.3841 14.4194 15.4949 15.5028 14.354 16.2652C13.2132 17.0275 11.8719 17.4343 10.4998 17.4343C8.66051 17.4321 6.89722 16.7005 5.59667 15.3999C4.29612 14.0994 3.56449 12.3361 3.56226 10.4968Z" fill="black"/>
</svg>
