<svg width="24" height="10" viewBox="0 0 24 10" fill="none" xmlns="http://www.w3.org/2000/svg">
<path d="M22.7883 1C22.7883 1 18.467 6.64706 11.985 6.64706C5.50297 6.64706 1.18164 1 1.18164 1" stroke="#7F7F7F" stroke-width="1.5" stroke-linecap="round"/>
<path d="M22.7883 1C22.7883 1 18.467 6.64706 11.985 6.64706C5.50297 6.64706 1.18164 1 1.18164 1" stroke="black" stroke-opacity="0.2" stroke-width="1.5" stroke-linecap="round"/>
<path d="M15.2285 6.17188L16.849 8.52482" stroke="#7F7F7F" stroke-width="1.5" stroke-linecap="round" stroke-linejoin="round"/>
<path d="M15.2285 6.17188L16.849 8.52482" stroke="black" stroke-opacity="0.2" stroke-width="1.5" stroke-linecap="round" stroke-linejoin="round"/>
<path d="M20.627 3.82812L22.7876 5.71048" stroke="#7F7F7F" stroke-width="1.5" stroke-linecap="round" stroke-linejoin="round"/>
<path d="M20.627 3.82812L22.7876 5.71048" stroke="black" stroke-opacity="0.2" stroke-width="1.5" stroke-linecap="round" stroke-linejoin="round"/>
<path d="M1.18164 5.71048L3.34231 3.82812" stroke="#7F7F7F" stroke-width="1.5" stroke-linecap="round" stroke-linejoin="round"/>
<path d="M1.18164 5.71048L3.34231 3.82812" stroke="black" stroke-opacity="0.2" stroke-width="1.5" stroke-linecap="round" stroke-linejoin="round"/>
<path d="M8.74745 6.17188L7.12695 8.52482" stroke="#7F7F7F" stroke-width="1.5" stroke-linecap="round" stroke-linejoin="round"/>
<path d="M8.74745 6.17188L7.12695 8.52482" stroke="black" stroke-opacity="0.2" stroke-width="1.5" stroke-linecap="round" stroke-linejoin="round"/>
</svg>
